<?xml version="1.0" encoding="UTF-8" standalone="no"?>
<!-- Created with Inkscape (http://www.inkscape.org/) -->

<svg
   xmlns:dc="http://purl.org/dc/elements/1.1/"
   xmlns:cc="http://creativecommons.org/ns#"
   xmlns:rdf="http://www.w3.org/1999/02/22-rdf-syntax-ns#"
   xmlns:svg="http://www.w3.org/2000/svg"
   xmlns="http://www.w3.org/2000/svg"
   xmlns:sodipodi="http://sodipodi.sourceforge.net/DTD/sodipodi-0.dtd"
   xmlns:inkscape="http://www.inkscape.org/namespaces/inkscape"
   width="247.28748"
   height="49.16544"
   viewBox="0 0 247.28746 49.165441"
   id="svg5289"
   version="1.1"
   inkscape:version="0.91 r13725"
   sodipodi:docname="freshipes_logo_hdr.svg">
  <defs
     id="defs5291" />
  <sodipodi:namedview
     id="base"
     pagecolor="#ffffff"
     bordercolor="#666666"
     borderopacity="1.0"
     inkscape:pageopacity="0.0"
     inkscape:pageshadow="2"
     inkscape:zoom="1.3632959"
     inkscape:cx="75.683572"
     inkscape:cy="-5.1628169"
     inkscape:document-units="px"
     inkscape:current-layer="layer1"
     showgrid="false"
     inkscape:window-width="1536"
     inkscape:window-height="803"
     inkscape:window-x="-8"
     inkscape:window-y="-8"
     inkscape:window-maximized="1"
     fit-margin-top="0"
     fit-margin-left="0"
     fit-margin-right="0"
     fit-margin-bottom="0"
     units="px" />
  <metadata
     id="metadata5294">
    <rdf:RDF>
      <cc:Work
         rdf:about="">
        <dc:format>image/svg+xml</dc:format>
        <dc:type
           rdf:resource="http://purl.org/dc/dcmitype/StillImage" />
        <dc:title></dc:title>
      </cc:Work>
    </rdf:RDF>
  </metadata>
  <g
     inkscape:label="Layer 1"
     inkscape:groupmode="layer"
     id="layer1"
     transform="translate(-306.42682,-232.76824)">
    <path
       id="path5253"
       style="font-style:normal;font-variant:normal;font-weight:bold;font-stretch:normal;font-size:90px;line-height:125%;font-family:'Berlin Sans FB Demi';-inkscape-font-specification:'Berlin Sans FB Demi Bold';letter-spacing:0px;word-spacing:0px;fill:#329f5b;fill-opacity:1;stroke:none;stroke-width:1px;stroke-linecap:butt;stroke-linejoin:miter;stroke-opacity:1"
       d="m 378.97247,248.35776 q 0,0.26552 -0.48479,0.26552 -1.81796,0 -5.52659,-0.3138 -3.68438,-0.31379 -5.52657,-0.31379 -2.32699,0 -2.71482,0.16896 -0.89685,0.41036 -0.89685,2.31725 0,2.29312 1.16348,2.6069 0.4848,0.1207 1.47861,0.1207 1.67252,0 4.99331,-0.16897 3.34504,-0.1931 5.01757,-0.1931 0.79989,0 0.79989,4.24829 0,3.6931 -0.26663,4.29656 -0.16968,0.43448 -0.65446,0.43448 0.3151,0 -1.52709,-0.16896 -2.59362,-0.24138 -7.85356,-0.24138 -1.69676,0 -1.91492,0.0241 -1.2362,0.1931 -1.2362,1.03793 0,3.4276 0.29086,7.89313 0.2424,4.03104 0.2424,3.59656 0,0.62758 -1.52708,0.72414 0.41207,-0.0241 -2.15731,-0.0241 -4.53277,0 -5.84169,-0.31379 -0.70295,-0.16897 -0.70295,-0.74828 0,-2.67931 0.16968,-8.03795 0.19391,-5.38278 0.19391,-8.06209 0,-3.18622 -0.29087,-8.01382 -0.43631,-7.45864 -0.46054,-8.01382 l -0.0242,-0.28965 q -0.0242,-0.60345 0.72718,-0.60345 1.79372,0 5.40539,0.0724 3.63591,0.0724 5.45386,0.0724 1.93916,0 5.81745,-0.28966 3.90255,-0.28966 5.84171,-0.28966 1.21197,0 1.35741,0.98966 0,1.03794 0.0969,3.11381 0.0485,0.53103 0.31512,2.05172 0.2424,1.32759 0.2424,2.05173 z"
       inkscape:connector-curvature="0" />
    <path
       id="path5255"
       style="font-style:normal;font-variant:normal;font-weight:bold;font-stretch:normal;font-size:90px;line-height:125%;font-family:'Berlin Sans FB Demi';-inkscape-font-specification:'Berlin Sans FB Demi Bold';letter-spacing:0px;word-spacing:0px;fill:#329f5b;fill-opacity:1;stroke:none;stroke-width:1px;stroke-linecap:butt;stroke-linejoin:miter;stroke-opacity:1"
       d="m 397.758,259.31641 q 0,0.94139 -1.04229,0.94139 -0.46055,0 -1.3574,-0.0483 -0.87262,-0.0724 -1.30894,-0.0724 -2.01187,0 -2.73905,0.62758 -0.72718,0.62759 -0.72718,2.5345 0,1.03793 0.0242,3.16207 0.0485,2.10001 0.0485,3.13794 0,0.7 0.097,2.1 0.097,1.37587 0.097,2.05174 0,0.57931 -0.7999,0.65172 -1.1635,0.0966 -3.56321,0.0966 -2.30273,0 -3.68437,-0.14482 -0.79991,-0.0966 -0.79991,-0.79655 0,-1.93105 0.0242,-5.76899 0.0242,-3.86208 0.0242,-5.79311 0,-5.67244 -1.04229,-9.34142 -0.0485,-0.21723 -0.0485,-0.36206 0,-0.36207 0.36358,-0.48276 1.33317,-0.14483 3.90255,-0.53104 3.82983,-0.74828 3.95101,-0.74828 0.43632,0 0.55751,1.5207 0.1212,1.52069 0.43631,1.52069 -0.33934,0 1.98764,-1.25517 2.32698,-1.27931 4.48428,-1.27931 1.35742,0 1.35742,0.57931 0,0.7 -0.14545,1.97931 -0.14543,1.37586 -0.16967,1.97931 0,0.7 0.0242,1.85863 0.0485,1.42414 0.0485,1.88276 z"
       inkscape:connector-curvature="0" />
    <path
       id="path5257"
       style="font-style:normal;font-variant:normal;font-weight:bold;font-stretch:normal;font-size:90px;line-height:125%;font-family:'Berlin Sans FB Demi';-inkscape-font-specification:'Berlin Sans FB Demi Bold';letter-spacing:0px;word-spacing:0px;fill:#329f5b;fill-opacity:1;stroke:none;stroke-width:1px;stroke-linecap:butt;stroke-linejoin:miter;stroke-opacity:1"
       d="m 422.7973,261.24745 q 0,2.43794 -1.57555,2.77587 -0.26664,0.0483 -5.01756,0.53103 -2.86025,0.3138 -8.53227,0.74829 0.33935,1.56896 2.06035,2.38965 1.40588,0.67586 3.1996,0.67586 2.15731,0 4.33885,-1.15861 0.92109,-0.57931 1.84219,-1.15863 0.50904,0.24138 1.69676,2.46207 1.21197,2.2207 1.21197,2.82415 0,0.16897 -0.36358,0.55518 -2.95721,3.16207 -9.18674,3.16207 -5.76898,0 -9.30793,-3.35518 -3.63591,-3.40345 -3.63591,-9.10003 0,-5.55173 3.24807,-9.10001 3.34505,-3.66898 8.87164,-3.66898 4.65395,0 7.90204,3.37932 3.24807,3.37931 3.24807,8.03795 z m -8.48378,-1.47242 q 0,-1.49656 -1.06654,-2.63104 -1.06654,-1.13449 -2.54513,-1.13449 -1.52709,0 -2.52091,1.27931 -0.92109,1.18277 -0.92109,2.77588 0,0.65173 0.6787,0.65173 1.79372,0 5.57507,-0.55518 0.7999,-0.12069 0.7999,-0.38621 z"
       inkscape:connector-curvature="0" />
    <path
       id="path5259"
       style="font-style:normal;font-variant:normal;font-weight:bold;font-stretch:normal;font-size:90px;line-height:125%;font-family:'Berlin Sans FB Demi';-inkscape-font-specification:'Berlin Sans FB Demi Bold';letter-spacing:0px;word-spacing:0px;fill:#329f5b;fill-opacity:1;stroke:none;stroke-width:1px;stroke-linecap:butt;stroke-linejoin:miter;stroke-opacity:1"
       d="m 439.59521,254.82674 q 0,0.24139 -0.36359,0.65173 -0.67871,-0.16897 -1.3574,-0.16897 -1.43014,0 -2.39971,0.6276 -1.1635,0.72414 -1.1635,2.05172 0,0.84483 1.23622,2.14829 1.86643,1.95517 2.30275,2.63103 1.2362,1.83449 1.2362,3.9345 0,1.23104 -0.48479,2.6069 -0.55751,1.52069 -1.40588,2.2207 -1.79372,1.54483 -4.19342,2.6069 -2.59361,1.11035 -4.77516,1.11035 -0.48479,0 -2.18154,-2.60691 -1.67253,-2.63104 -1.67253,-3.21035 0,-0.21724 0.26663,-0.26552 1.69677,-0.31379 3.41776,-0.62759 2.13307,-0.67586 2.13307,-2.22069 0,-1.06207 -1.23621,-2.46207 -2.20578,-2.43794 -2.30274,-2.58277 -1.23622,-1.73793 -1.23622,-3.66898 0,-3.6207 3.68439,-6.15518 3.29657,-2.24485 7.05367,-2.24485 0.38783,0 1.91491,2.60691 1.52709,2.58277 1.52709,3.01725 z"
       inkscape:connector-curvature="0" />
    <path
       id="path5261"
       style="font-style:normal;font-variant:normal;font-weight:bold;font-stretch:normal;font-size:90px;line-height:125%;font-family:'Berlin Sans FB Demi';-inkscape-font-specification:'Berlin Sans FB Demi Bold';letter-spacing:0px;word-spacing:0px;fill:#329f5b;fill-opacity:1;stroke:none;stroke-width:1px;stroke-linecap:butt;stroke-linejoin:miter;stroke-opacity:1"
       d="m 467.25236,256.85433 -0.0485,16.65522 q 0,0.84483 -0.6787,0.94138 -0.77566,0.0966 -3.53895,0.0966 -2.66634,0 -3.70863,-0.19311 -0.7999,-0.14483 -0.7999,-1.03794 0,-2.07585 0.0727,-6.25173 0.0727,-4.17588 0.0727,-6.25174 0,-2.82415 -2.88449,-2.82415 -0.96958,0 -2.27851,0.77242 -1.43012,0.84482 -1.43012,1.76207 l 0,5.96209 q 0,1.15861 0.0485,3.5 0.0485,2.31725 0.0485,3.47587 0,0.89311 -0.75142,0.98966 -0.75143,0.0966 -4.21766,0.0966 -1.98764,0 -2.86026,-0.19311 -0.87261,-0.1931 -0.87261,-0.84483 0,-1.9069 0.0242,-5.72071 0.0242,-3.83794 0.0242,-5.74484 0,-7.89312 -0.16966,-13.05865 -0.0727,-1.81036 -0.1212,-3.6207 -0.1212,-2.10001 -0.43632,-3.59656 -0.0727,-0.3138 -0.0727,-0.45862 0,-0.36208 0.36359,-0.48277 0.75142,-0.21724 2.20578,-0.26552 1.93916,-0.0724 2.25427,-0.12068 4.38733,-0.5069 4.38733,-0.5069 0.38784,0 0.38784,0.5069 0,0.77242 -0.097,2.1 -0.097,1.54484 -0.097,2.10001 -0.14544,5.45518 -0.14544,8.61726 0,0.48276 0.2424,0.48276 0.0485,0 1.2362,-0.84482 1.40589,-0.98966 2.69057,-1.56897 1.91492,-0.84484 3.70863,-0.84484 3.10265,0 5.18724,1.61725 2.25426,1.73793 2.25426,4.75518 z"
       inkscape:connector-curvature="0" />
    <path
       id="path5263"
       style="font-style:normal;font-variant:normal;font-weight:bold;font-stretch:normal;font-size:90px;line-height:125%;font-family:'Berlin Sans FB Demi';-inkscape-font-specification:'Berlin Sans FB Demi Bold';letter-spacing:0px;word-spacing:0px;fill:#329f5b;fill-opacity:0.49019608;stroke:none;stroke-width:1px;stroke-linecap:butt;stroke-linejoin:miter;stroke-opacity:1"
       d="m 480.77795,245.34051 q 0,4.20001 -4.75092,4.20001 -2.03611,0 -3.36928,-1.06207 -1.45436,-1.15863 -1.45436,-3.13794 0,-1.88277 1.50284,-3.08967 1.38164,-1.11034 3.3208,-1.11034 1.89067,0 3.27232,1.13448 1.4786,1.20691 1.4786,3.06553 z m -0.63022,17.93453 q 0,1.76208 0.0727,5.26208 0.0727,3.47588 0.0727,5.21381 0,0.5069 -0.60599,0.60345 -0.82414,0.14483 -3.70863,0.14483 -2.90872,0 -3.73287,-0.14483 -0.53327,-0.0966 -0.65446,-0.3138 -0.0485,-0.0966 -0.0485,-0.72414 0,-1.66551 0.0727,-4.99656 0.0727,-3.35518 0.0727,-5.04484 0,-6.85519 -0.53327,-10.91038 -0.0485,-0.3862 -0.0485,-0.50689 0,-0.48277 0.65446,-0.48277 0.6787,0 2.06035,0.14483 1.40588,0.14483 2.10882,0.14483 0.70295,0 2.10883,-0.12069 1.4059,-0.12069 2.10883,-0.12069 0.58175,0 0.58175,0.48277 0,0.0966 -0.0485,0.45861 -0.53326,4.70692 -0.53326,10.91038 z"
       inkscape:connector-curvature="0" />
    <path
       id="path5265"
       style="font-style:normal;font-variant:normal;font-weight:bold;font-stretch:normal;font-size:90px;line-height:125%;font-family:'Berlin Sans FB Demi';-inkscape-font-specification:'Berlin Sans FB Demi Bold';letter-spacing:0px;word-spacing:0px;fill:#329f5b;fill-opacity:0.49019608;stroke:none;stroke-width:1px;stroke-linecap:butt;stroke-linejoin:miter;stroke-opacity:1"
       d="m 511.58623,262.744 q 0,5.16554 -3.05417,8.56899 -3.15112,3.52416 -8.26564,3.52416 -1.86642,0 -3.99949,-0.91726 -2.13307,-0.91724 -1.93915,-0.91724 -0.31512,0 -0.31512,0.72414 0,1.23104 0.1212,3.69312 0.1212,2.48621 0.1212,3.71725 0,0.77242 -0.7999,0.77242 l -4.94485,0.0241 q -1.67251,0 -2.1573,-0.1207 -0.72718,-0.16896 -0.72718,-0.89309 l 0.0485,-18.58627 q 0,-5.62415 -0.84838,-9.48623 -0.0485,-0.24138 -0.0485,-0.41034 0,-0.36208 0.29086,-0.48277 0.94534,-0.36206 3.61167,-0.77241 2.59362,-0.41035 3.75711,-0.41035 0.94534,0 1.06654,1.25518 0.14544,1.23103 0.33935,1.23103 -0.24239,0 2.06034,-1.30345 2.32699,-1.32759 4.21767,-1.32759 5.25994,0 8.41106,3.45174 3.05417,3.33104 3.05417,8.66554 z m -8.99282,-0.0483 q 0,-1.93104 -1.18773,-3.37932 -1.28468,-1.52069 -3.17536,-1.52069 -1.93915,0 -3.10265,1.52069 -1.01805,1.37587 -1.01805,3.37932 0,2.05174 1.06653,3.40345 1.13926,1.47243 3.15113,1.47243 4.26613,0 4.26613,-4.87588 z"
       inkscape:connector-curvature="0" />
    <path
       id="path5267"
       style="font-style:normal;font-variant:normal;font-weight:bold;font-stretch:normal;font-size:90px;line-height:125%;font-family:'Berlin Sans FB Demi';-inkscape-font-specification:'Berlin Sans FB Demi Bold';letter-spacing:0px;word-spacing:0px;fill:#329f5b;fill-opacity:0.49019608;stroke:none;stroke-width:1px;stroke-linecap:butt;stroke-linejoin:miter;stroke-opacity:1"
       d="m 536.9164,261.24745 q 0,2.43794 -1.57555,2.77587 -0.26664,0.0483 -5.01756,0.53103 -2.86026,0.3138 -8.53227,0.74829 0.33935,1.56896 2.06034,2.38965 1.40589,0.67586 3.19961,0.67586 2.1573,0 4.33885,-1.15861 0.9211,-0.57931 1.84219,-1.15863 0.50903,0.24138 1.69676,2.46207 1.21197,2.2207 1.21197,2.82415 0,0.16897 -0.36359,0.55518 -2.95721,3.16207 -9.18673,3.16207 -5.76898,0 -9.30793,-3.35518 -3.63591,-3.40345 -3.63591,-9.10003 0,-5.55173 3.24808,-9.10001 3.34503,-3.66898 8.87162,-3.66898 4.65396,0 7.90204,3.37932 3.24808,3.37931 3.24808,8.03795 z m -8.48379,-1.47242 q 0,-1.49656 -1.06654,-2.63104 -1.06652,-1.13449 -2.54513,-1.13449 -1.52708,0 -2.5209,1.27931 -0.92109,1.18277 -0.92109,2.77588 0,0.65173 0.6787,0.65173 1.79371,0 5.57506,-0.55518 0.7999,-0.12069 0.7999,-0.38621 z"
       inkscape:connector-curvature="0" />
    <path
       id="path5269"
       style="font-style:normal;font-variant:normal;font-weight:bold;font-stretch:normal;font-size:90px;line-height:125%;font-family:'Berlin Sans FB Demi';-inkscape-font-specification:'Berlin Sans FB Demi Bold';letter-spacing:0px;word-spacing:0px;fill:#329f5b;fill-opacity:0.49019608;stroke:none;stroke-width:1px;stroke-linecap:butt;stroke-linejoin:miter;stroke-opacity:1"
       d="m 553.7143,254.82674 q 0,0.24139 -0.36358,0.65173 -0.67871,-0.16897 -1.35741,-0.16897 -1.43012,0 -2.3997,0.6276 -1.16349,0.72414 -1.16349,2.05172 0,0.84483 1.23621,2.14829 1.86644,1.95517 2.30274,2.63103 1.23621,1.83449 1.23621,3.9345 0,1.23104 -0.48479,2.6069 -0.55751,1.52069 -1.40588,2.2207 -1.79372,1.54483 -4.19341,2.6069 -2.59363,1.11035 -4.77517,1.11035 -0.48479,0 -2.18155,-2.60691 -1.67252,-2.63104 -1.67252,-3.21035 0,-0.21724 0.26664,-0.26552 1.69676,-0.31379 3.41775,-0.62759 2.13307,-0.67586 2.13307,-2.22069 0,-1.06207 -1.23621,-2.46207 -2.20579,-2.43794 -2.30274,-2.58277 -1.23621,-1.73793 -1.23621,-3.66898 0,-3.6207 3.68439,-6.15518 3.29656,-2.24485 7.05366,-2.24485 0.38783,0 1.91492,2.60691 1.52707,2.58277 1.52707,3.01725 z"
       inkscape:connector-curvature="0" />
    <path
       d="m 339.90609,248.62735 -9.41049,0 c 0.84928,0 1.5423,-0.6921 1.5423,-1.54366 0,-0.85157 -0.69302,-1.53775 -1.5423,-1.53775 l -3.84866,0 c -0.8502,0 -1.54092,0.68618 -1.54092,1.53775 0,0.85156 0.69072,1.54366 1.54092,1.54366 l -9.41139,0 c -2.61802,0 -4.7868,2.34692 -5.20779,4.84511 l 33.0884,0 c -0.42282,-2.49819 -2.59069,-4.84511 -5.21007,-4.84511"
       style="fill:#a30000;fill-opacity:1;fill-rule:nonzero;stroke:none"
       id="path4438"
       inkscape:connector-curvature="0" />
    <path
       d="m 345.19274,256.11668 0,-0.43922 -33.16494,0 -0.0779,0 -5.52308,0 0,2.20295 5.52308,0 0,13.65143 c 0,2.92146 2.36743,5.28707 5.2857,5.28707 l 22.67054,0 c 2.92056,0 5.28661,-2.36561 5.28661,-5.28707 l 0,-13.21221 5.28708,0 0,-2.20295 -5.28708,0 z"
       style="fill:#004777;fill-opacity:1;fill-rule:nonzero;stroke:none"
       id="path4442"
       inkscape:connector-curvature="0" />
    <path
       d="m 320.48106,238.06076 c 0.15309,0.20412 0.31712,0.39867 0.48796,0.58274 l 0.42602,0.42557 c 0.27018,0.27154 0.52123,0.54218 0.72171,0.78594 0.10069,0.12348 0.18362,0.24012 0.24421,0.33534 0.0587,0.0961 0.11255,0.16949 0.12485,0.27976 0.015,0.11572 -0.047,0.27474 -0.16631,0.43283 -0.11937,0.15583 -0.2884,0.30756 -0.48297,0.46065 0.23147,0.0888 0.48571,0.11891 0.75635,0.0875 0.26928,-0.0333 0.56452,-0.15264 0.811,-0.40916 0.24377,-0.25561 0.38,-0.63513 0.40142,-0.96957 0.0232,-0.33534 -0.0282,-0.64106 -0.10343,-0.91626 -0.154,-0.54811 -0.40915,-0.99235 -0.68116,-1.40104 -0.13714,-0.19865 -0.30526,-0.40324 -0.4251,-0.55769 -0.11982,-0.14124 -0.231,-0.28522 -0.33214,-0.42966 -0.41281,-0.57409 -0.70076,-1.09212 -0.80919,-1.69993 -0.11528,-0.61282 0.011,-1.40014 0.38225,-2.29954 -0.965,0.20184 -1.82203,1.00784 -2.10133,2.13551 -0.13942,0.55769 -0.10935,1.16732 0.0401,1.70358 0.14626,0.54721 0.40733,1.03109 0.70577,1.45345"
       style="fill:#a30000;fill-opacity:1;fill-rule:nonzero;stroke:none"
       id="path4446"
       inkscape:connector-curvature="0" />
    <path
       d="m 326.19287,238.06076 c 0.15399,0.20412 0.31848,0.39867 0.48843,0.58274 l 0.42509,0.42557 c 0.26973,0.27154 0.51986,0.54218 0.7249,0.78594 0.0966,0.12348 0.17769,0.24012 0.24148,0.33534 0.0611,0.0961 0.11254,0.16949 0.12257,0.27976 0.0156,0.11572 -0.0446,0.27474 -0.16357,0.43283 -0.11892,0.15583 -0.28841,0.30756 -0.48616,0.46065 0.23556,0.0888 0.48935,0.11891 0.75953,0.0875 0.26745,-0.0333 0.56588,-0.15264 0.81056,-0.40916 0.24695,-0.25561 0.37999,-0.63513 0.40278,-0.96957 0.0237,-0.33534 -0.0268,-0.64106 -0.10253,-0.91626 -0.15627,-0.54811 -0.41279,-0.99235 -0.68479,-1.40104 -0.13442,-0.19865 -0.30391,-0.40324 -0.42374,-0.55769 -0.11755,-0.14124 -0.23101,-0.28522 -0.32987,-0.42966 -0.41416,-0.57409 -0.70394,-1.09212 -0.81147,-1.69993 -0.11254,-0.61282 0.01,-1.40014 0.37953,-2.29954 -0.96228,0.20184 -1.8193,1.00784 -2.09769,2.13551 -0.13942,0.55769 -0.11026,1.16732 0.0392,1.70358 0.14899,0.54721 0.4055,1.03109 0.70575,1.45345"
       style="fill:#a30000;fill-opacity:1;fill-rule:nonzero;stroke:none"
       id="path4450"
       inkscape:connector-curvature="0" />
    <path
       d="m 331.39784,238.06076 c 0.15262,0.20412 0.31619,0.39867 0.48706,0.58274 l 0.42646,0.42557 c 0.26973,0.27154 0.51941,0.54218 0.72171,0.78594 0.10024,0.12348 0.18315,0.24012 0.24422,0.33534 0.0579,0.0961 0.10935,0.16949 0.12438,0.27976 0.0159,0.11572 -0.0465,0.27474 -0.16584,0.43283 -0.11847,0.15583 -0.28842,0.30756 -0.48617,0.46065 0.2342,0.0888 0.48981,0.11891 0.75681,0.0875 0.26882,-0.0333 0.5668,-0.15264 0.81329,-0.40916 0.24421,-0.25561 0.37862,-0.63513 0.40049,-0.96957 0.0246,-0.33534 -0.0259,-0.64106 -0.10252,-0.91626 -0.15354,-0.54811 -0.40778,-0.99235 -0.68115,-1.40104 -0.13669,-0.19865 -0.30528,-0.40324 -0.42511,-0.55769 -0.11937,-0.14124 -0.23236,-0.28522 -0.3317,-0.42966 -0.41278,-0.57409 -0.70074,-1.09212 -0.80827,-1.69993 -0.11481,-0.61282 0.01,-1.40014 0.37816,-2.29954 -0.96273,0.20184 -1.82203,1.00784 -2.09952,2.13551 -0.13759,0.55769 -0.10843,1.16732 0.041,1.70358 0.14718,0.54721 0.40598,1.03109 0.70668,1.45345"
       style="fill:#a30000;fill-opacity:1;fill-rule:nonzero;stroke:none"
       id="path4454"
       inkscape:connector-curvature="0" />
  </g>
</svg>
