<?xml version="1.0" encoding="UTF-8" standalone="no"?>
<!-- Created with Inkscape (http://www.inkscape.org/) -->

<svg
   xmlns:dc="http://purl.org/dc/elements/1.1/"
   xmlns:cc="http://creativecommons.org/ns#"
   xmlns:rdf="http://www.w3.org/1999/02/22-rdf-syntax-ns#"
   xmlns:svg="http://www.w3.org/2000/svg"
   xmlns="http://www.w3.org/2000/svg"
   xmlns:sodipodi="http://sodipodi.sourceforge.net/DTD/sodipodi-0.dtd"
   xmlns:inkscape="http://www.inkscape.org/namespaces/inkscape"
   width="102.33211mm"
   height="21.580065mm"
   viewBox="0 0 362.59408 76.464798"
   id="svg5289"
   version="1.1"
   inkscape:version="0.91 r13725"
   sodipodi:docname="freshipes_logo_color2.svg">
  <defs
     id="defs5291" />
  <sodipodi:namedview
     id="base"
     pagecolor="#ffffff"
     bordercolor="#666666"
     borderopacity="1.0"
     inkscape:pageopacity="0.0"
     inkscape:pageshadow="2"
     inkscape:zoom="1.3632959"
     inkscape:cx="134.1269"
     inkscape:cy="31.185688"
     inkscape:document-units="px"
     inkscape:current-layer="layer1"
     showgrid="false"
     inkscape:window-width="1536"
     inkscape:window-height="803"
     inkscape:window-x="-8"
     inkscape:window-y="-8"
     inkscape:window-maximized="1"
     fit-margin-top="0"
     fit-margin-left="0"
     fit-margin-right="0"
     fit-margin-bottom="0" />
  <metadata
     id="metadata5294">
    <rdf:RDF>
      <cc:Work
         rdf:about="">
        <dc:format>image/svg+xml</dc:format>
        <dc:type
           rdf:resource="http://purl.org/dc/dcmitype/StillImage" />
        <dc:title></dc:title>
      </cc:Work>
    </rdf:RDF>
  </metadata>
  <g
     inkscape:label="Layer 1"
     inkscape:groupmode="layer"
     id="layer1"
     transform="translate(-224.41726,-222.70124)">
    <path
       id="path5253"
       style="font-style:normal;font-variant:normal;font-weight:bold;font-stretch:normal;font-size:90px;line-height:125%;font-family:'Berlin Sans FB Demi';-inkscape-font-specification:'Berlin Sans FB Demi Bold';letter-spacing:0px;word-spacing:0px;fill:#329f5b;fill-opacity:1;stroke:none;stroke-width:1px;stroke-linecap:butt;stroke-linejoin:miter;stroke-opacity:1"
       d="m 270.20959,238.03816 q 0,0.4834 -0.87891,0.4834 -3.2959,0 -10.01953,-0.57129 -6.67969,-0.57129 -10.01953,-0.57129 -4.21875,0 -4.92188,0.30762 -1.62597,0.74707 -1.62597,4.21875 0,4.1748 2.10937,4.74609 0.87891,0.21973 2.68066,0.21973 3.03223,0 9.05274,-0.30762 6.06445,-0.35156 9.09668,-0.35156 1.45019,0 1.45019,7.73437 0,6.72363 -0.48339,7.82227 -0.30762,0.79101 -1.18653,0.79101 0.57129,0 -2.76855,-0.30761 -4.70215,-0.43946 -14.23828,-0.43946 -3.07618,0 -3.47168,0.0439 -2.24121,0.35156 -2.24121,1.88965 0,6.24023 0.52734,14.37011 0.43945,7.33887 0.43945,6.54786 0,1.14257 -2.76855,1.31835 0.74707,-0.0439 -3.91113,-0.0439 -8.21778,0 -10.59083,-0.57129 -1.27441,-0.30762 -1.27441,-1.3623 0,-4.87793 0.30762,-14.63379 0.35156,-9.79981 0.35156,-14.67774 0,-5.80078 -0.52734,-14.58984 -0.79102,-13.5791 -0.83496,-14.58985 l -0.0439,-0.52734 q -0.0439,-1.09863 1.31836,-1.09863 3.25195,0 9.7998,0.13183 6.5918,0.13184 9.8877,0.13184 3.51562,0 10.54687,-0.52734 7.0752,-0.52735 10.59083,-0.52735 2.19726,0 2.46093,1.80176 0,1.88965 0.17578,5.66895 0.0879,0.96679 0.57129,3.73535 0.43946,2.41699 0.43946,3.73535 z"
       inkscape:connector-curvature="0" />
    <path
       id="path5255"
       style="font-style:normal;font-variant:normal;font-weight:bold;font-stretch:normal;font-size:90px;line-height:125%;font-family:'Berlin Sans FB Demi';-inkscape-font-specification:'Berlin Sans FB Demi Bold';letter-spacing:0px;word-spacing:0px;fill:#329f5b;fill-opacity:1;stroke:none;stroke-width:1px;stroke-linecap:butt;stroke-linejoin:miter;stroke-opacity:1"
       d="m 304.2672,257.98933 q 0,1.71387 -1.88965,1.71387 -0.83496,0 -2.46093,-0.0879 -1.58203,-0.13184 -2.37305,-0.13184 -3.64746,0 -4.96582,1.14258 -1.31836,1.14258 -1.31836,4.61426 0,1.88965 0.0439,5.75683 0.0879,3.82325 0.0879,5.71289 0,1.27442 0.17578,3.82325 0.17578,2.50488 0.17578,3.73535 0,1.05469 -1.4502,1.18652 -2.10937,0.17578 -6.45996,0.17578 -4.1748,0 -6.67968,-0.26367 -1.4502,-0.17578 -1.4502,-1.45019 0,-3.51563 0.0439,-10.50293 0.0439,-7.03125 0.0439,-10.54688 0,-10.32715 -1.88965,-17.00684 -0.0879,-0.3955 -0.0879,-0.65918 0,-0.65917 0.65918,-0.8789 2.41699,-0.26367 7.0752,-0.9668 6.94336,-1.3623 7.16308,-1.3623 0.79102,0 1.01074,2.76855 0.21973,2.76856 0.79102,2.76856 -0.61523,0 3.60352,-2.28516 4.21875,-2.3291 8.12988,-2.3291 2.46094,0 2.46094,1.05469 0,1.27441 -0.26368,3.60351 -0.26367,2.50488 -0.30761,3.60352 0,1.27441 0.0439,3.38379 0.0879,2.59277 0.0879,3.42773 z"
       inkscape:connector-curvature="0" />
    <path
       id="path5257"
       style="font-style:normal;font-variant:normal;font-weight:bold;font-stretch:normal;font-size:90px;line-height:125%;font-family:'Berlin Sans FB Demi';-inkscape-font-specification:'Berlin Sans FB Demi Bold';letter-spacing:0px;word-spacing:0px;fill:#329f5b;fill-opacity:1;stroke:none;stroke-width:1px;stroke-linecap:butt;stroke-linejoin:miter;stroke-opacity:1"
       d="m 349.66271,261.50496 q 0,4.43847 -2.85644,5.05371 -0.4834,0.0879 -9.09668,0.96679 -5.18555,0.57129 -15.46875,1.36231 0.61523,2.85644 3.73535,4.35058 2.54883,1.23047 5.80078,1.23047 3.91113,0 7.86621,-2.10937 1.66992,-1.05469 3.33984,-2.10938 0.92286,0.43946 3.07618,4.48242 2.19726,4.04297 2.19726,5.14161 0,0.30761 -0.65918,1.01074 -5.36133,5.75683 -16.65527,5.75683 -10.45899,0 -16.875,-6.10839 -6.5918,-6.19629 -6.5918,-16.56739 0,-10.10742 5.88867,-16.56738 6.06446,-6.67969 16.08399,-6.67969 8.4375,0 14.32617,6.15235 5.88867,6.15234 5.88867,14.63379 z m -15.38086,-2.68067 q 0,-2.72461 -1.93359,-4.79004 -1.9336,-2.06543 -4.61426,-2.06543 -2.76855,0 -4.57031,2.3291 -1.66992,2.15332 -1.66992,5.05372 0,1.18652 1.23046,1.18652 3.25196,0 10.10743,-1.01074 1.45019,-0.21973 1.45019,-0.70313 z"
       inkscape:connector-curvature="0" />
    <path
       id="path5259"
       style="font-style:normal;font-variant:normal;font-weight:bold;font-stretch:normal;font-size:90px;line-height:125%;font-family:'Berlin Sans FB Demi';-inkscape-font-specification:'Berlin Sans FB Demi Bold';letter-spacing:0px;word-spacing:0px;fill:#329f5b;fill-opacity:1;stroke:none;stroke-width:1px;stroke-linecap:butt;stroke-linejoin:miter;stroke-opacity:1"
       d="m 380.11681,249.8155 q 0,0.43946 -0.65918,1.18653 -1.23047,-0.30762 -2.46093,-0.30762 -2.59278,0 -4.35059,1.14258 -2.10938,1.31836 -2.10938,3.73535 0,1.53808 2.24122,3.91113 3.38378,3.55957 4.1748,4.79004 2.24121,3.33984 2.24121,7.16309 0,2.24121 -0.87891,4.74609 -1.01074,2.76855 -2.54882,4.04297 -3.25196,2.8125 -7.60254,4.74609 -4.70215,2.02149 -8.65723,2.02149 -0.87891,0 -3.95508,-4.7461 -3.03222,-4.79004 -3.03222,-5.84472 0,-0.39551 0.48339,-0.4834 3.07618,-0.57129 6.19629,-1.14258 3.86719,-1.23047 3.86719,-4.04297 0,-1.93359 -2.24121,-4.48242 -3.99902,-4.43848 -4.1748,-4.70215 -2.24122,-3.16406 -2.24122,-6.67969 0,-6.59179 6.67969,-11.20605 5.97656,-4.08692 12.78809,-4.08692 0.70312,0 3.47168,4.7461 2.76855,4.70215 2.76855,5.49316 z"
       inkscape:connector-curvature="0" />
    <path
       id="path5261"
       style="font-style:normal;font-variant:normal;font-weight:bold;font-stretch:normal;font-size:90px;line-height:125%;font-family:'Berlin Sans FB Demi';-inkscape-font-specification:'Berlin Sans FB Demi Bold';letter-spacing:0px;word-spacing:0px;fill:#329f5b;fill-opacity:1;stroke:none;stroke-width:1px;stroke-linecap:butt;stroke-linejoin:miter;stroke-opacity:1"
       d="m 430.25841,253.50691 -0.0879,30.32226 q 0,1.53809 -1.23047,1.71387 -1.40625,0.17578 -6.41601,0.17578 -4.83399,0 -6.72363,-0.35156 -1.4502,-0.26367 -1.4502,-1.88965 0,-3.77929 0.13184,-11.38183 0.13183,-7.60254 0.13183,-11.38184 0,-5.1416 -5.22949,-5.1416 -1.75781,0 -4.13086,1.40625 -2.59277,1.53808 -2.59277,3.20801 l 0,10.85449 q 0,2.10937 0.0879,6.37207 0.0879,4.21875 0.0879,6.32812 0,1.62598 -1.36231,1.80176 -1.3623,0.17578 -7.64648,0.17578 -3.60352,0 -5.18555,-0.35156 -1.58203,-0.35156 -1.58203,-1.53809 0,-3.47168 0.0439,-10.41503 0.0439,-6.98731 0.0439,-10.45899 0,-14.37012 -0.30761,-23.77441 -0.13184,-3.2959 -0.21973,-6.5918 -0.21973,-3.82324 -0.79102,-6.54785 -0.13183,-0.57129 -0.13183,-0.83496 0,-0.65918 0.65918,-0.87891 1.3623,-0.39551 3.99902,-0.4834 3.51563,-0.13183 4.08691,-0.21972 7.95411,-0.92286 7.95411,-0.92286 0.70312,0 0.70312,0.92286 0,1.40625 -0.17578,3.82324 -0.17578,2.8125 -0.17578,3.82324 -0.26367,9.93164 -0.26367,15.68848 0,0.8789 0.43945,0.8789 0.0879,0 2.24121,-1.53808 2.54883,-1.80176 4.87793,-2.85645 3.47168,-1.53808 6.72363,-1.53808 5.625,0 9.4043,2.94433 4.08691,3.16406 4.08691,8.65723 z"
       inkscape:connector-curvature="0" />
    <path
       id="path5263"
       style="font-style:normal;font-variant:normal;font-weight:bold;font-stretch:normal;font-size:90px;line-height:125%;font-family:'Berlin Sans FB Demi';-inkscape-font-specification:'Berlin Sans FB Demi Bold';letter-spacing:0px;word-spacing:0px;fill:#329f5b;fill-opacity:0.49019608;stroke:none;stroke-width:1px;stroke-linecap:butt;stroke-linejoin:miter;stroke-opacity:1"
       d="m 454.7799,232.54499 q 0,7.64649 -8.61328,7.64649 -3.69141,0 -6.1084,-1.93359 -2.63672,-2.10938 -2.63672,-5.7129 0,-3.42773 2.72461,-5.625 2.50488,-2.02148 6.02051,-2.02148 3.42773,0 5.93261,2.06543 2.68067,2.19727 2.68067,5.58105 z m -1.14258,32.65137 q 0,3.20801 0.13184,9.58008 0.13183,6.32813 0.13183,9.49219 0,0.92285 -1.09863,1.09863 -1.49414,0.26367 -6.72363,0.26367 -5.27344,0 -6.76758,-0.26367 -0.9668,-0.17578 -1.18652,-0.57129 -0.0879,-0.17578 -0.0879,-1.31836 0,-3.03222 0.13184,-9.09668 0.13184,-6.1084 0.13184,-9.18457 0,-12.48047 -0.9668,-19.86328 -0.0879,-0.70312 -0.0879,-0.92285 0,-0.87891 1.18652,-0.87891 1.23047,0 3.73535,0.26367 2.54883,0.26368 3.82325,0.26368 1.27441,0 3.82324,-0.21973 2.54883,-0.21973 3.82324,-0.21973 1.05469,0 1.05469,0.87891 0,0.17578 -0.0879,0.83496 -0.9668,8.56934 -0.9668,19.86328 z"
       inkscape:connector-curvature="0" />
    <path
       id="path5265"
       style="font-style:normal;font-variant:normal;font-weight:bold;font-stretch:normal;font-size:90px;line-height:125%;font-family:'Berlin Sans FB Demi';-inkscape-font-specification:'Berlin Sans FB Demi Bold';letter-spacing:0px;word-spacing:0px;fill:#329f5b;fill-opacity:0.49019608;stroke:none;stroke-width:1px;stroke-linecap:butt;stroke-linejoin:miter;stroke-opacity:1"
       d="m 510.63439,264.22957 q 0,9.40429 -5.53711,15.60058 -5.71289,6.41602 -14.98535,6.41602 -3.38379,0 -7.25098,-1.66993 -3.86718,-1.66992 -3.51562,-1.66992 -0.57129,0 -0.57129,1.31836 0,2.24121 0.21973,6.72364 0.21972,4.52636 0.21972,6.76757 0,1.40625 -1.45019,1.40625 l -8.96485,0.0439 q -3.03222,0 -3.91113,-0.21973 -1.31836,-0.30762 -1.31836,-1.62597 l 0.0879,-33.8379 q 0,-10.23925 -1.53808,-17.2705 -0.0879,-0.43946 -0.0879,-0.74707 0,-0.65918 0.52734,-0.87891 1.71387,-0.65918 6.54785,-1.40625 4.70215,-0.74707 6.81152,-0.74707 1.71387,0 1.9336,2.28516 0.26367,2.24121 0.61523,2.24121 -0.43945,0 3.73535,-2.37305 4.21875,-2.41699 7.64649,-2.41699 9.53613,0 15.24902,6.28418 5.53711,6.06445 5.53711,15.77637 z m -16.30371,-0.0879 q 0,-3.51562 -2.15332,-6.15234 -2.3291,-2.76855 -5.75684,-2.76855 -3.51562,0 -5.625,2.76855 -1.8457,2.50488 -1.8457,6.15234 0,3.73536 1.93359,6.19629 2.06543,2.68067 5.71289,2.68067 7.73438,0 7.73438,-8.87696 z"
       inkscape:connector-curvature="0" />
    <path
       id="path5267"
       style="font-style:normal;font-variant:normal;font-weight:bold;font-stretch:normal;font-size:90px;line-height:125%;font-family:'Berlin Sans FB Demi';-inkscape-font-specification:'Berlin Sans FB Demi Bold';letter-spacing:0px;word-spacing:0px;fill:#329f5b;fill-opacity:0.49019608;stroke:none;stroke-width:1px;stroke-linecap:butt;stroke-linejoin:miter;stroke-opacity:1"
       d="m 556.55724,261.50496 q 0,4.43847 -2.85644,5.05371 -0.4834,0.0879 -9.09668,0.96679 -5.18555,0.57129 -15.46875,1.36231 0.61523,2.85644 3.73535,4.35058 2.54883,1.23047 5.80078,1.23047 3.91113,0 7.86621,-2.10937 1.66992,-1.05469 3.33984,-2.10938 0.92286,0.43946 3.07618,4.48242 2.19726,4.04297 2.19726,5.14161 0,0.30761 -0.65918,1.01074 -5.36133,5.75683 -16.65527,5.75683 -10.45899,0 -16.875,-6.10839 -6.5918,-6.19629 -6.5918,-16.56739 0,-10.10742 5.88867,-16.56738 6.06446,-6.67969 16.08399,-6.67969 8.4375,0 14.32617,6.15235 5.88867,6.15234 5.88867,14.63379 z m -15.38086,-2.68067 q 0,-2.72461 -1.93359,-4.79004 -1.93359,-2.06543 -4.61426,-2.06543 -2.76855,0 -4.57031,2.3291 -1.66992,2.15332 -1.66992,5.05372 0,1.18652 1.23047,1.18652 3.25195,0 10.10742,-1.01074 1.45019,-0.21973 1.45019,-0.70313 z"
       inkscape:connector-curvature="0" />
    <path
       id="path5269"
       style="font-style:normal;font-variant:normal;font-weight:bold;font-stretch:normal;font-size:90px;line-height:125%;font-family:'Berlin Sans FB Demi';-inkscape-font-specification:'Berlin Sans FB Demi Bold';letter-spacing:0px;word-spacing:0px;fill:#329f5b;fill-opacity:0.49019608;stroke:none;stroke-width:1px;stroke-linecap:butt;stroke-linejoin:miter;stroke-opacity:1"
       d="m 587.01134,249.8155 q 0,0.43946 -0.65918,1.18653 -1.23046,-0.30762 -2.46093,-0.30762 -2.59278,0 -4.35059,1.14258 -2.10937,1.31836 -2.10937,3.73535 0,1.53808 2.24121,3.91113 3.38379,3.55957 4.1748,4.79004 2.24121,3.33984 2.24121,7.16309 0,2.24121 -0.8789,4.74609 -1.01075,2.76855 -2.54883,4.04297 -3.25196,2.8125 -7.60254,4.74609 -4.70215,2.02149 -8.65723,2.02149 -0.8789,0 -3.95508,-4.7461 -3.03222,-4.79004 -3.03222,-5.84472 0,-0.39551 0.4834,-0.4834 3.07617,-0.57129 6.19629,-1.14258 3.86718,-1.23047 3.86718,-4.04297 0,-1.93359 -2.24121,-4.48242 -3.99902,-4.43848 -4.1748,-4.70215 -2.24121,-3.16406 -2.24121,-6.67969 0,-6.59179 6.67968,-11.20605 5.97657,-4.08692 12.78809,-4.08692 0.70312,0 3.47168,4.7461 2.76855,4.70215 2.76855,5.49316 z"
       inkscape:connector-curvature="0" />
  </g>
</svg>
